# xmcd CD database file
#
# Track frame offsets:
#	150
#	21044
#	40792
#	60074
#	79908
#	98087
#	119208
#	135512
#	162205
#	182245
#	197698
#	222510
#	250621
#	269559
#
# Disc length: 3935 seconds
#
# Revision: 0
# Processed by: cddbd v1.5.2PL0 Copyright (c) Steve Scherf et al.
# Submitted via: CDex 1.51
#
DISCID=c00f5d0e
DTITLE=Charles Walker - Soul Stirring Thing
DYEAR=2010
DGENRE=Blues
TTITLE0=Soul Stirring Thing
TTITLE1=There Is Nothing I Can Do
TTITLE2=That's A Lie
TTITLE3=One Step Closer To The Blues
TTITLE4=Magic Man
TTITLE5=No More Tears For You
TTITLE6=Third Time's A Charm
TTITLE7=The House That Love Lives In
TTITLE8=Tomorrow Night
TTITLE9=San Diego Serenade
TTITLE10=My Buddha
TTITLE11=Time To Kill
TTITLE12=The Danger Zone
TTITLE13=Giant Switches
EXTD=YEAR: 2010
EXTT0=
EXTT1=
EXTT2=
EXTT3=
EXTT4=
EXTT5=
EXTT6=
EXTT7=
EXTT8=
EXTT9=
EXTT10=
EXTT11=
EXTT12=
EXTT13=
PLAYORDER=
